# xmcd
#
# Track frame offsets:
#	150
#	17390
#	33610
#	53125
#	69900
#	87680
#	102642
#	123665
#	140392
#	160232
#	176742
#	192900
#	213547
#
# Disc length: 3109 seconds
#
# Revision: 19
# Processed by: cddbd v1.5.2PL0 Copyright (c) Steve Scherf et al.
# Submitted via: EasyCDDAExtractor 16.0.6.1
#
DISCID=bd0c230d
DTITLE=LeAnn Rimes - I Need You
DYEAR=2001
DGENRE=Country
TTITLE0=I Need You
TTITLE1=Can't Fight the Moonlight
TTITLE2=Written in the Stars
TTITLE3=You Are
TTITLE4=Soon
TTITLE5=But I Do Love You
TTITLE6=One of These Days
TTITLE7=Love Must Be Telling Me Something
TTITLE8=I Believe in You
TTITLE9=Together, Forever, Always
TTITLE10=Can't Fight the Moonlight (Latino Mix)
TTITLE11=Soon (Graham Stack Radio Edit)
TTITLE12=I Need You (Dave Aude Radio Edit)
EXTD=
EXTT0=
EXTT1=
EXTT2=
EXTT3=
EXTT4=
EXTT5=
EXTT6=
EXTT7=
EXTT8=
EXTT9=
EXTT10=
EXTT11=
EXTT12=
PLAYORDER=
